<svg width="132" height="46" viewBox="0 0 132 46" fill="none" xmlns="http://www.w3.org/2000/svg">
<path d="M16.2432 1.67702V19.7693H13.4905L3.51202 7.53548V19.7693H0.200195V1.67702H2.95289L12.9314 13.9109V1.67702H16.2432ZM26.9529 19.9416C25.5765 19.9416 24.2862 19.6401 23.1679 19.037C22.0497 18.4339 21.1895 17.6155 20.5443 16.5386C19.9421 15.4616 19.5981 14.2124 19.5981 12.877C19.5981 11.5416 19.8991 10.2924 20.5443 9.21548C21.1895 8.13856 22.0497 7.3201 23.1679 6.71702C24.2862 6.11394 25.5335 5.81241 26.9529 5.81241C28.3722 5.81241 29.6196 6.11394 30.7378 6.71702C31.8561 7.3201 32.7163 8.13856 33.3615 9.21548C34.0067 10.2924 34.3077 11.4986 34.3077 12.877C34.3077 14.2555 34.0067 15.4616 33.3615 16.5386C32.7593 17.6155 31.8561 18.4339 30.7378 19.037C29.6196 19.6401 28.3722 19.9416 26.9529 19.9416ZM26.9529 17.1847C28.1572 17.1847 29.1034 16.797 29.8776 15.9786C30.6518 15.2032 31.0389 14.1263 31.0389 12.8339C31.0389 11.5416 30.6518 10.5078 29.8776 9.68933C29.1034 8.91394 28.1142 8.48317 26.9529 8.48317C25.7486 8.48317 24.8024 8.87087 24.0282 9.68933C23.254 10.4647 22.9099 11.5416 22.9099 12.8339C22.9099 14.1263 23.297 15.1601 24.0282 15.9786C24.8024 16.797 25.7486 17.1847 26.9529 17.1847ZM40.4583 7.96625C41.4045 6.50164 43.0389 5.81241 45.3615 5.81241V8.87087C45.1034 8.82779 44.8454 8.78471 44.6303 8.78471C43.383 8.78471 42.3938 9.1724 41.7056 9.90471C41.0174 10.637 40.6303 11.6709 40.6303 13.0493V19.7693H37.4045V5.98471H40.4583V7.96625ZM61.4905 0.600098V19.7693H58.3938V18.0032C57.8776 18.6493 57.1895 19.1663 56.4153 19.4678C55.6411 19.8124 54.7809 19.9416 53.8346 19.9416C52.5013 19.9416 51.297 19.6401 50.2647 19.0801C49.2325 18.477 48.3723 17.6586 47.7701 16.5816C47.1679 15.5047 46.8669 14.2555 46.8669 12.877C46.8669 11.4986 47.1679 10.2493 47.7701 9.17241C48.3723 8.09548 49.1895 7.27702 50.2647 6.67394C51.34 6.07087 52.5443 5.81241 53.8346 5.81241C54.7378 5.81241 55.5981 5.98471 56.3293 6.28625C57.1034 6.58779 57.7486 7.06164 58.2647 7.66471V0.600098H61.4905ZM54.1787 17.1847C54.9529 17.1847 55.6411 17.0124 56.2862 16.6678C56.8884 16.3232 57.4045 15.8063 57.7486 15.1601C58.0927 14.5139 58.3077 13.7386 58.3077 12.877C58.3077 12.0155 58.1357 11.2401 57.7486 10.5939C57.4045 9.94779 56.8884 9.43087 56.2862 9.08625C55.6841 8.74164 54.9529 8.52625 54.1787 8.52625C53.4045 8.52625 52.7163 8.69856 52.0712 9.08625C51.469 9.43087 50.9529 9.94779 50.6088 10.5939C50.2647 11.2401 50.0497 12.0155 50.0497 12.877C50.0497 13.7386 50.2217 14.5139 50.6088 15.1601C50.9529 15.8063 51.469 16.3232 52.0712 16.6678C52.7163 17.0124 53.4045 17.1847 54.1787 17.1847Z" fill="#E85E23"/>
<path d="M7.29697 45.8739C5.92063 45.8739 4.54428 45.6585 3.25396 45.2708C1.96364 44.8832 0.931378 44.3662 0.200195 43.677L1.36148 41.0493C2.09267 41.6524 2.99589 42.1262 4.07116 42.5139C5.14643 42.8585 6.2217 43.0739 7.33998 43.0739C8.67332 43.0739 9.66256 42.8585 10.3507 42.4278C11.0389 41.997 11.34 41.437 11.34 40.7047C11.34 40.1878 11.1679 39.757 10.7808 39.4555C10.4368 39.1108 9.96364 38.8524 9.4045 38.637C8.84536 38.4647 8.07116 38.2493 7.08192 37.9909C5.70557 37.6462 4.58729 37.3447 3.72708 37.0001C2.86686 36.6555 2.13568 36.1816 1.53353 35.4924C0.931381 34.8032 0.630303 33.8555 0.630303 32.6493C0.630303 31.6585 0.888371 30.7539 1.44751 29.9355C2.00665 29.117 2.82385 28.4708 3.89912 27.9539C5.0174 27.4801 6.35073 27.2216 7.94213 27.2216C9.06041 27.2216 10.1357 27.3509 11.211 27.6524C12.2862 27.9109 13.1894 28.3416 13.9636 28.8585L12.8884 31.4862C12.1142 31.0124 11.254 30.6678 10.3937 30.4093C9.53353 30.1508 8.71633 30.0647 7.89912 30.0647C6.56579 30.0647 5.57654 30.2801 4.93138 30.7539C4.28622 31.1847 3.98514 31.7878 3.98514 32.5201C3.98514 33.037 4.15719 33.4678 4.54428 33.7693C4.93138 34.1139 5.4045 34.3724 5.96364 34.5447C6.52278 34.717 7.29697 34.9324 8.28622 35.1909C9.61955 35.4924 10.7378 35.837 11.598 36.1816C12.4583 36.5262 13.1894 37.0001 13.7916 37.6893C14.3937 38.3785 14.7378 39.3262 14.7378 40.4893C14.7378 41.4801 14.4798 42.3847 13.9206 43.2032C13.4045 44.0216 12.5873 44.6678 11.469 45.1416C10.2217 45.6155 8.84536 45.8739 7.29697 45.8739ZM23.8131 45.7878C22.4368 45.7878 21.1464 45.4862 20.0282 44.8832C18.9099 44.2801 18.0497 43.4616 17.4045 42.3847C16.8023 41.3078 16.4583 40.0585 16.4583 38.7232C16.4583 37.3447 16.7593 36.1385 17.4045 35.0616C18.0497 33.9847 18.9099 33.1662 20.0282 32.5632C21.1464 31.9601 22.3937 31.6585 23.8131 31.6585C25.2325 31.6585 26.4798 31.9601 27.598 32.5632C28.7163 33.1662 29.5765 33.9847 30.2217 35.0616C30.8669 36.1385 31.1679 37.3447 31.1679 38.7232C31.1679 40.1016 30.8669 41.3078 30.2217 42.3847C29.6196 43.4616 28.7163 44.2801 27.598 44.8832C26.4798 45.4862 25.1894 45.7878 23.8131 45.7878ZM23.8131 43.0308C25.0174 43.0308 25.9636 42.6432 26.7378 41.8247C27.512 41.0493 27.8991 39.9724 27.8991 38.6801C27.8991 37.3878 27.512 36.3539 26.7378 35.5355C25.9636 34.7601 24.9744 34.3293 23.8131 34.3293C22.6518 34.3293 21.6626 34.717 20.8884 35.5355C20.1142 36.3108 19.7701 37.3878 19.7701 38.6801C19.7701 39.9724 20.1572 41.0062 20.8884 41.8247C21.6196 42.6432 22.6088 43.0308 23.8131 43.0308ZM39.8131 28.8585C38.4368 28.8585 37.7916 29.5909 37.7916 31.0985V31.917H41.5765V34.5016H37.8776V45.6155H34.6518V34.5016H32.3722V31.917H34.6518V31.0555C34.6518 29.5908 35.0819 28.4278 35.9421 27.5662C36.8023 26.7047 38.0067 26.2739 39.598 26.2739C40.8454 26.2739 41.7916 26.5324 42.5228 27.0062L41.6196 29.4185C41.0604 29.0739 40.4583 28.8585 39.8131 28.8585ZM52.0282 44.8832C51.6411 45.1847 51.1679 45.4432 50.6518 45.5724C50.1357 45.7447 49.5335 45.7878 48.9314 45.7878C47.426 45.7878 46.2647 45.4001 45.4045 44.5816C44.5873 43.8062 44.1572 42.6432 44.1572 41.1355V34.5016H41.8776V31.917H44.1572V28.7724H47.383V31.917H51.0819V34.5016H47.426V41.0493C47.426 41.7385 47.5981 42.2555 47.8991 42.6001C48.2432 42.9447 48.7163 43.117 49.3185 43.117C50.0497 43.117 50.6518 42.9447 51.1249 42.557L52.0282 44.8832ZM75.9421 31.8308L70.8669 45.6155H67.7701L64.2002 36.0955L60.5873 45.6155H57.4905L52.4153 31.8308H55.469L59.1249 41.997L62.9099 31.8308H65.6196L69.3185 42.0832L73.0604 31.8308H75.9421ZM83.9851 45.7878C82.6088 45.7878 81.3185 45.4862 80.2002 44.8832C79.0819 44.2801 78.2217 43.4616 77.5765 42.3847C76.9744 41.3078 76.6303 40.0585 76.6303 38.7232C76.6303 37.3447 76.9314 36.1385 77.5765 35.0616C78.2217 33.9847 79.0819 33.1662 80.2002 32.5632C81.3185 31.9601 82.5658 31.6585 83.9851 31.6585C85.4045 31.6585 86.6518 31.9601 87.7701 32.5632C88.8884 33.1662 89.7486 33.9847 90.3937 35.0616C91.0389 36.1385 91.34 37.3447 91.34 38.7232C91.34 40.1016 91.0389 41.3078 90.3937 42.3847C89.7916 43.4616 88.8884 44.2801 87.7701 44.8832C86.6518 45.4862 85.4045 45.7878 83.9851 45.7878ZM83.9851 43.0308C85.1894 43.0308 86.1357 42.6432 86.9099 41.8247C87.6841 41.0493 88.0712 39.9724 88.0712 38.6801C88.0712 37.3878 87.6841 36.3539 86.9099 35.5355C86.1357 34.7601 85.1464 34.3293 83.9851 34.3293C82.7808 34.3293 81.8346 34.717 81.0604 35.5355C80.2862 36.3108 79.9421 37.3878 79.9421 38.6801C79.9421 39.9724 80.3292 41.0062 81.0604 41.8247C81.7916 42.6432 82.7808 43.0308 83.9851 43.0308ZM97.4905 33.8124C98.4368 32.3478 100.071 31.6585 102.394 31.6585V34.717C102.136 34.6739 101.878 34.6308 101.663 34.6308C100.415 34.6308 99.426 35.0185 98.7378 35.7508C98.0497 36.4832 97.6626 37.517 97.6626 38.8955V45.6155H94.4368V31.8308H97.4905V33.8124ZM110.738 39.7139L108.329 41.997V45.6585H105.103V26.4462H108.329V38.0339L115.039 31.8308H118.91L113.146 37.6032L119.426 45.6155H115.512L110.738 39.7139ZM125.361 45.7878C124.243 45.7878 123.168 45.6585 122.093 45.357C121.017 45.0555 120.157 44.7109 119.555 44.237L120.802 41.7816C121.405 42.2124 122.179 42.5139 123.039 42.7724C123.899 43.0308 124.759 43.117 125.62 43.117C127.555 43.117 128.501 42.6001 128.501 41.6093C128.501 41.1355 128.243 40.7908 127.77 40.6185C127.297 40.4462 126.523 40.2308 125.404 40.0585C124.286 39.8862 123.34 39.6708 122.609 39.4555C121.921 39.2401 121.275 38.8524 120.759 38.2924C120.243 37.7324 119.985 36.957 119.985 35.9232C119.985 34.6308 120.544 33.5539 121.62 32.7785C122.738 32.0032 124.2 31.5724 126.05 31.5724C126.996 31.5724 127.942 31.7016 128.888 31.917C129.835 32.1324 130.609 32.3908 131.211 32.7785L129.964 35.2339C128.802 34.5447 127.469 34.2001 126.007 34.2001C125.06 34.2001 124.329 34.3293 123.856 34.6308C123.383 34.8893 123.125 35.277 123.125 35.7508C123.125 36.2678 123.383 36.6555 123.899 36.8708C124.415 37.0862 125.232 37.2585 126.351 37.4739C127.469 37.6462 128.372 37.8616 129.06 38.077C129.749 38.2924 130.351 38.6801 130.867 39.197C131.383 39.7139 131.641 40.4893 131.641 41.4801C131.641 42.7724 131.082 43.8062 129.964 44.5816C128.802 45.4001 127.297 45.7878 125.361 45.7878Z" fill="white"/>
</svg>
