<svg width="113" height="97" fill="none" xmlns="http://www.w3.org/2000/svg"><path fill-rule="evenodd" clip-rule="evenodd" d="M47.003 8.537C48.01 4.73 45.14 1 41.203 1H26.786a6 6 0 0 0-5.668 4.033L1.842 60.575c-.297.74-.56 1.496-.788 2.268l-.052.152c-.001.002 0 .004.003.004.002 0 .003.002.003.004A25.842 25.842 0 0 0 0 70.17c0 14.265 11.564 25.83 25.829 25.83 14.264 0 25.828-11.565 25.828-25.83 0-8.533-4.138-16.1-10.518-20.803-2.329-1.717-3.741-4.587-3-7.383l8.864-33.448ZM107.777 8.293c1.007-3.807-1.863-7.536-5.801-7.536H88.213a6 6 0 0 0-5.669 4.035L63.326 60.228a25.75 25.75 0 0 0-1.983 9.944C61.343 84.436 72.907 96 87.17 96 101.436 96 113 84.436 113 70.172c0-8.71-4.311-16.412-10.915-21.09-2.404-1.704-3.882-4.62-3.129-7.468l8.821-33.321Z" fill="#F4F4F4"/></svg>