<?xml version="1.0" standalone="no"?>
<!DOCTYPE svg PUBLIC "-//W3C//DTD SVG 20010904//EN"
 "http://www.w3.org/TR/2001/REC-SVG-20010904/DTD/svg10.dtd">
<svg version="1.0" xmlns="http://www.w3.org/2000/svg"
 width="113.000000pt" height="113.000000pt" viewBox="0 0 113.000000 113.000000"
 preserveAspectRatio="xMidYMid meet">
<metadata>
Created by potrace 1.14, written by Peter Selinger 2001-2017
</metadata>
<g transform="translate(0.000000,113.000000) scale(0.100000,-0.100000)"
fill="#000000" stroke="none">
<path d="M98 1109 c-20 -10 -50 -35 -65 -56 l-28 -36 0 -446 0 -446 23 -32
c12 -18 37 -43 55 -55 l32 -23 433 -3 c411 -3 435 -2 476 17 30 13 54 34 73
62 l28 43 2 415 c0 229 -3 433 -8 453 -13 50 -50 92 -100 112 -35 14 -94 16
-462 16 -396 -1 -424 -3 -459 -21z"/>
</g>
</svg>
